# xmcd CD database file
#
# Track frame offsets:
#	150
#	18030
#	31811
#
# Disc length: 664 seconds
#
# Revision: 0
# Processed by: cddbd v1.5.2PL0 Copyright (c) Steve Scherf et al.
# Submitted via: CDex 1.70beta3
#
DISCID=12029603
DTITLE=Da-iCE - TOKI
DYEAR=2014
DGENRE=SonyMusic
TTITLE0=TOKI
TTITLE1=SIGN
TTITLE2=TOKI - English ver.-
EXTD=YEAR: 2014
EXTT0=
EXTT1=
EXTT2=
PLAYORDER=
